PathFileType	4	(X/Y/Z)	Kaydara																																																																																																																									
DataRate	CameraRate	NumFrames	NumMarkers	Units	OrigDataRate	OrigDataStartFrame	OrigNumFrames																																																																																																																					
30	30	4	41	mm	30	103	174																																																																																																																					
Frame#	Time	SALE_LFHD			SALE_RFHD			SALE_LBHD			SALE_RBHD			SALE_LFTShould			SALE_RFTShould			SALE_LRRShould			SALE_RRRShould			SALE_T10			SALE_STRN			SALE_TRUN			SALE_LSHO			SALE_LUPA			SALE_LELB			SALE_LFRM			SALE_LWRA			SALE_LWRB			SALE_LFIN			SALE_RSHO			SALE_RUPA			SALE_RELB			SALE_RFRM			SALE_RWRB			SALE_RFIN			SALE_LFWT			SALE_RFWT			SALE_LBWT			SALE_RBWT			SALE_LTHI			SALE_LKNE			SALE_RWRA			SALE_LSHN			SALE_LANK			SALE_LHEE			SALE_LTOE			SALE_RTHI			SALE_RKNE			SALE_RSHN			SALE_RANK			SALE_RHEE			SALE_RTOE		
		X1	Y1	Z1	X2	Y2	Z2	X3	Y3	Z3	X4	Y4	Z4	X5	Y5	Z5	X6	Y6	Z6	X7	Y7	Z7	X8	Y8	Z8	X9	Y9	Z9	X10	Y10	Z10	X11	Y11	Z11	X12	Y12	Z12	X13	Y13	Z13	X14	Y14	Z14	X15	Y15	Z15	X16	Y16	Z16	X17	Y17	Z17	X18	Y18	Z18	X19	Y19	Z19	X20	Y20	Z20	X21	Y21	Z21	X22	Y22	Z22	X23	Y23	Z23	X24	Y24	Z24	X25	Y25	Z25	X26	Y26	Z26	X27	Y27	Z27	X28	Y28	Z28	X29	Y29	Z29	X30	Y30	Z30	X31	Y31	Z31	X32	Y32	Z32	X33	Y33	Z33	X34	Y34	Z34	X35	Y35	Z35	X36	Y36	Z36	X37	Y37	Z37	X38	Y38	Z38	X39	Y39	Z39	X40	Y40	Z40	X41	Y41	Z41
																																																																																																																												
88	3.4	161.18114	1586.16425	425.73261	27.6525	1586.16272	425.65285	157.21326	1567.55524	291.38632	28.99682	1565.3595	297.56052	165.87334	1325.10468	383.4507	26.72147	1319.80942	380.22522	164.11762	1389.06662	272.64404	14.63257	1389.89166	276.33408	94.04181	1240.0267	197.99763	92.33977	1248.82034	424.11129	90.50567	1160.64171	460.27473	280.53049	1362.59109	322.09736	335.82752	1152.03857	336.67301	332.43614	1036.95168	336.5078	363.77563	950.76332	409.57958	308.73016	862.4202	538.16792	373.35758	836.62849	503.90388	372.93221	825.52109	567.28992	-77.10014	1352.58087	315.12955	-90.46381	1143.84117	208.337	-132.06813	1039.1011	216.99108	-123.34863	934.58908	176.77948	-158.52913	794.22043	167.13804	-183.40633	739.81827	198.46748	230.74825	921.56075	373.2338	-46.13407	908.14476	393.10802	154.94781	978.64227	211.74706	-22.14068	964.17557	218.57483	199.23489	658.34518	157.50608	195.6629	474.37386	190.26339	-132.79498	779.84596	236.14063	176.53316	281.44068	124.51517	156.77188	123.16003	17.00798	111.62522	91.50099	-56.76264	121.91544	41.29712	162.62646	-51.84107	636.87645	316.17916	-26.25679	530.93262	488.94569	23.24001	361.0276	558.42155	-16.5637	113.72937	619.02637	-1.46079	108.52842	759.2131	34.80172	23.91829	576.45363
89	3.433	159.13933	1580.62012	471.95145	25.70045	1580.32211	471.14212	156.05197	1561.9696	337.50103	27.77713	1559.48349	343.00495	164.53539	1319.75128	430.08606	25.08841	1314.46777	428.42079	161.5501	1381.66321	318.28075	12.04024	1383.15765	323.49152	90.29411	1231.77277	246.80861	91.17872	1244.33258	472.75463	89.84406	1156.72363	510.25452	278.54712	1355.40756	366.36131	334.03389	1145.31052	382.70962	331.80885	1030.5323	384.89727	363.55244	948.87184	463.57162	309.53529	869.66309	598.39085	374.33598	842.0887	566.05122	374.64394	836.7495	629.98161	-79.41733	1346.59683	363.64826	-92.59441	1139.48013	255.66877	-134.76821	1034.65866	262.25729	-126.30607	930.81757	220.72742	-162.48718	791.58012	208.27517	-185.20245	734.78867	237.05866	228.97173	915.50766	427.2731	-48.43907	904.03252	448.55141	151.27879	971.69884	265.86046	-25.97152	959.86435	274.28669	197.37448	657.23289	207.20846	197.95204	472.37053	234.71424	-135.37625	774.66217	276.43333	179.70789	283.02097	153.10038	165.1458	135.141	30.82395	123.51521	111.10077	-47.45952	122.08755	40.98273	162.84657	-58.26362	636.53625	375.8839	-28.24367	530.03788	542.17171	24.72844	352.03766	609.09435	-12.62402	97.87633	654.19205	10.73317	91.02888	790.14801	37.1269	19.80481	606.4053
90	3.467	157.92955	1579.96185	518.21915	24.27169	1580.28503	517.28912	154.90479	1560.69992	383.72047	26.53067	1558.96561	389.15318	162.39735	1318.11768	477.7747	22.2652	1313.19	477.1394	159.02318	1378.9888	364.79267	8.54815	1380.91919	370.7695	86.73705	1227.6918	297.01759	88.87275	1243.99712	522.72484	87.23242	1157.40608	562.26803	276.36566	1351.53275	411.68415	330.78247	1140.92018	426.20758	328.51032	1026.41098	430.43827	361.78295	947.80525	512.30938	309.61922	874.92844	651.13487	374.23012	846.1528	619.49825	375.7946	845.1709	683.47855	-82.65206	1343.66928	411.95251	-96.58699	1135.74562	305.25812	-138.82858	1031.14433	312.06583	-130.73283	927.79297	269.84842	-166.49416	788.78075	256.67374	-187.58965	730.89905	284.65504	225.13592	912.87117	486.47041	-51.47022	907.34932	502.8624	152.40387	968.84697	322.11411	-27.9053	963.89687	329.03912	195.59771	652.79114	266.93787	193.88084	467.48871	294.79591	-137.53387	770.97946	323.31814	180.79813	285.79683	192.36771	173.6006	152.95644	53.15056	135.85561	140.17793	-28.37577	121.53933	40.69933	162.67174	-61.15142	640.50728	433.50983	-25.57543	531.08326	594.21684	33.66222	351.44775	650.72548	-5.35647	92.66442	673.843	7.31408	51.94651	810.12642	44.54435	33.12675	617.17293
91	3.5	157.11401	1584.94843	564.73217	23.70266	1587.13181	563.97881	153.65756	1565.59967	430.35686	25.2839	1565.58746	435.95406	159.15087	1323.96194	526.61091	19.05208	1318.93051	525.78339	155.7753	1383.46558	413.14125	5.42091	1384.94934	418.58284	84.12745	1230.92323	347.58751	85.60154	1250.18654	572.78053	83.94608	1164.53163	614.16695	273.55341	1355.37476	460.02853	325.59521	1143.44849	469.64653	322.9269	1029.13902	473.92963	357.58072	949.98665	555.0642	308.66413	878.25294	695.19302	371.94008	848.82309	662.12944	376.31783	849.88266	725.72174	-85.68834	1348.04245	460.19054	-101.78091	1137.47765	357.75791	-142.85387	1033.19725	367.0459	-135.03947	929.77585	325.30342	-170.33403	790.61844	314.32566	-189.62542	732.59689	343.11394	220.16685	915.31265	544.40498	-54.34647	920.81535	554.44561	155.42166	971.10832	377.64236	-24.17662	975.18082	380.76466	189.78619	642.18941	338.53516	187.24766	457.1542	376.30543	-138.57165	773.82408	379.83925	183.35674	289.08085	246.34674	180.91784	177.03974	90.41924	145.65677	181.09798	8.91397	119.99058	41.09177	156.228	-67.18271	654.46945	481.05141	-20.37484	543.40626	642.0475	37.01612	351.65642	684.31458	-4.66599	92.96663	691.35666	21.27599	46.98866	819.56741	38.5658	36.29289	621.09241
